<svg width="233" height="208" viewBox="0 0 233 208" fill="none" xmlns="http://www.w3.org/2000/svg">
<g filter="url(#filter0_d_2086_124)">
<rect x="24" y="20" width="155" height="100" rx="10" fill="#FCFCFF"/>
</g>
<g clip-path="url(#clip0_2086_124)">
<path d="M49.908 56.168C49.1613 56.168 48.4707 56.0327 47.836 55.762C47.2107 55.4913 46.66 55.1133 46.184 54.628C45.7173 54.1427 45.3533 53.5733 45.092 52.92C44.8307 52.2667 44.7 51.5527 44.7 50.778C44.7 50.0033 44.826 49.2893 45.078 48.636C45.3393 47.9733 45.7033 47.404 46.17 46.928C46.646 46.4427 47.2013 46.0693 47.836 45.808C48.4707 45.5373 49.1613 45.402 49.908 45.402C50.6547 45.402 51.322 45.528 51.91 45.78C52.5073 46.032 53.0113 46.368 53.422 46.788C53.8327 47.1987 54.1267 47.6513 54.304 48.146L52.596 48.944C52.4 48.4213 52.0687 47.992 51.602 47.656C51.1353 47.3107 50.5707 47.138 49.908 47.138C49.2547 47.138 48.676 47.292 48.172 47.6C47.6773 47.908 47.29 48.3327 47.01 48.874C46.7393 49.4153 46.604 50.05 46.604 50.778C46.604 51.506 46.7393 52.1453 47.01 52.696C47.29 53.2373 47.6773 53.662 48.172 53.97C48.676 54.278 49.2547 54.432 49.908 54.432C50.5707 54.432 51.1353 54.264 51.602 53.928C52.0687 53.5827 52.4 53.1487 52.596 52.626L54.304 53.424C54.1267 53.9187 53.8327 54.376 53.422 54.796C53.0113 55.2067 52.5073 55.538 51.91 55.79C51.322 56.042 50.6547 56.168 49.908 56.168ZM59.2831 56.168C58.5364 56.168 57.8551 55.9953 57.2391 55.65C56.6324 55.3047 56.1471 54.8333 55.7831 54.236C55.4284 53.6387 55.2511 52.9573 55.2511 52.192C55.2511 51.4267 55.4284 50.7453 55.7831 50.148C56.1471 49.5507 56.6324 49.0793 57.2391 48.734C57.8457 48.3887 58.5271 48.216 59.2831 48.216C60.0297 48.216 60.7064 48.3887 61.3131 48.734C61.9197 49.0793 62.4004 49.5507 62.7551 50.148C63.1191 50.736 63.3011 51.4173 63.3011 52.192C63.3011 52.9573 63.1191 53.6387 62.7551 54.236C62.3911 54.8333 61.9057 55.3047 61.2991 55.65C60.6924 55.9953 60.0204 56.168 59.2831 56.168ZM59.2831 54.488C59.6937 54.488 60.0531 54.39 60.3611 54.194C60.6784 53.998 60.9257 53.7273 61.1031 53.382C61.2897 53.0273 61.3831 52.6307 61.3831 52.192C61.3831 51.744 61.2897 51.352 61.1031 51.016C60.9257 50.6707 60.6784 50.4 60.3611 50.204C60.0531 49.9987 59.6937 49.896 59.2831 49.896C58.8631 49.896 58.4944 49.9987 58.1771 50.204C57.8597 50.4 57.6077 50.6707 57.4211 51.016C57.2437 51.352 57.1551 51.744 57.1551 52.192C57.1551 52.6307 57.2437 53.0273 57.4211 53.382C57.6077 53.7273 57.8597 53.998 58.1771 54.194C58.4944 54.39 58.8631 54.488 59.2831 54.488ZM67.4079 56.168C66.8199 56.168 66.3066 56.0373 65.8679 55.776C65.4386 55.5147 65.1072 55.1507 64.8739 54.684C64.6499 54.2173 64.5379 53.6713 64.5379 53.046V48.384H66.3719V52.892C66.3719 53.2093 66.4326 53.4893 66.5539 53.732C66.6846 53.9653 66.8666 54.152 67.0999 54.292C67.3426 54.4227 67.6132 54.488 67.9119 54.488C68.2106 54.488 68.4766 54.4227 68.7099 54.292C68.9432 54.152 69.1252 53.9607 69.2559 53.718C69.3866 53.4753 69.4519 53.186 69.4519 52.85V48.384H71.2859V56H69.5499V54.502L69.7039 54.768C69.5266 55.2347 69.2326 55.5847 68.8219 55.818C68.4206 56.0513 67.9492 56.168 67.4079 56.168ZM72.9907 56V48.384H74.7127V50.078L74.5727 49.826C74.7501 49.2567 75.0254 48.86 75.3987 48.636C75.7814 48.412 76.2387 48.3 76.7707 48.3H77.2187V49.924H76.5607C76.0381 49.924 75.6181 50.0873 75.3007 50.414C74.9834 50.7313 74.8247 51.1793 74.8247 51.758V56H72.9907ZM81.125 56.168C80.313 56.168 79.6037 55.9767 78.997 55.594C78.3997 55.202 77.989 54.6747 77.765 54.012L79.137 53.354C79.333 53.7833 79.6037 54.1193 79.949 54.362C80.3037 54.6047 80.6957 54.726 81.125 54.726C81.461 54.726 81.727 54.6513 81.923 54.502C82.119 54.3527 82.217 54.1567 82.217 53.914C82.217 53.7647 82.175 53.6433 82.091 53.55C82.0164 53.4473 81.909 53.3633 81.769 53.298C81.6384 53.2233 81.4937 53.1627 81.335 53.116L80.089 52.766C79.445 52.5793 78.955 52.2947 78.619 51.912C78.2924 51.5293 78.129 51.0767 78.129 50.554C78.129 50.0873 78.2457 49.6813 78.479 49.336C78.7217 48.9813 79.053 48.706 79.473 48.51C79.9024 48.314 80.3924 48.216 80.943 48.216C81.6617 48.216 82.2964 48.3887 82.847 48.734C83.3977 49.0793 83.7897 49.5647 84.023 50.19L82.623 50.848C82.4924 50.5027 82.273 50.2273 81.965 50.022C81.657 49.8167 81.3117 49.714 80.929 49.714C80.621 49.714 80.3784 49.784 80.201 49.924C80.0237 50.064 79.935 50.246 79.935 50.47C79.935 50.61 79.9724 50.7313 80.047 50.834C80.1217 50.9367 80.2244 51.0207 80.355 51.086C80.495 51.1513 80.6537 51.212 80.831 51.268L82.049 51.632C82.6744 51.8187 83.155 52.0987 83.491 52.472C83.8364 52.8453 84.009 53.3027 84.009 53.844C84.009 54.3013 83.8877 54.7073 83.645 55.062C83.4024 55.4073 83.0664 55.678 82.637 55.874C82.2077 56.07 81.7037 56.168 81.125 56.168ZM89.0305 56.168C88.2465 56.168 87.5605 55.9907 86.9725 55.636C86.3845 55.2813 85.9271 54.8007 85.6005 54.194C85.2738 53.5873 85.1105 52.9153 85.1105 52.178C85.1105 51.4127 85.2738 50.736 85.6005 50.148C85.9365 49.5507 86.3891 49.0793 86.9585 48.734C87.5371 48.3887 88.1811 48.216 88.8905 48.216C89.4878 48.216 90.0105 48.314 90.4585 48.51C90.9158 48.706 91.3031 48.9767 91.6205 49.322C91.9378 49.6673 92.1805 50.064 92.3485 50.512C92.5165 50.9507 92.6005 51.4267 92.6005 51.94C92.6005 52.0707 92.5911 52.206 92.5725 52.346C92.5631 52.486 92.5398 52.6073 92.5025 52.71H86.6225V51.31H91.4665L90.5985 51.968C90.6825 51.5387 90.6591 51.156 90.5285 50.82C90.4071 50.484 90.2018 50.218 89.9125 50.022C89.6325 49.826 89.2918 49.728 88.8905 49.728C88.5078 49.728 88.1671 49.826 87.8685 50.022C87.5698 50.2087 87.3411 50.4887 87.1825 50.862C87.0331 51.226 86.9771 51.6693 87.0145 52.192C86.9771 52.6587 87.0378 53.074 87.1965 53.438C87.3645 53.7927 87.6071 54.068 87.9245 54.264C88.2511 54.46 88.6245 54.558 89.0445 54.558C89.4645 54.558 89.8191 54.4693 90.1085 54.292C90.4071 54.1147 90.6405 53.8767 90.8085 53.578L92.2925 54.306C92.1431 54.67 91.9098 54.992 91.5925 55.272C91.2751 55.552 90.8971 55.7713 90.4585 55.93C90.0291 56.0887 89.5531 56.168 89.0305 56.168ZM96.479 56V45.402H98.313V49.882L98.061 49.616C98.2383 49.1587 98.5277 48.8133 98.929 48.58C99.3397 48.3373 99.8157 48.216 100.357 48.216C100.917 48.216 101.412 48.3373 101.841 48.58C102.28 48.8227 102.62 49.1633 102.863 49.602C103.106 50.0313 103.227 50.5307 103.227 51.1V56H101.393V51.534C101.393 51.198 101.328 50.9087 101.197 50.666C101.066 50.4233 100.884 50.2367 100.651 50.106C100.427 49.966 100.161 49.896 99.853 49.896C99.5543 49.896 99.2883 49.966 99.055 50.106C98.8217 50.2367 98.6397 50.4233 98.509 50.666C98.3783 50.9087 98.313 51.198 98.313 51.534V56H96.479ZM108.502 56.168C107.755 56.168 107.074 55.9953 106.458 55.65C105.851 55.3047 105.366 54.8333 105.002 54.236C104.647 53.6387 104.47 52.9573 104.47 52.192C104.47 51.4267 104.647 50.7453 105.002 50.148C105.366 49.5507 105.851 49.0793 106.458 48.734C107.064 48.3887 107.746 48.216 108.502 48.216C109.248 48.216 109.925 48.3887 110.532 48.734C111.138 49.0793 111.619 49.5507 111.974 50.148C112.338 50.736 112.52 51.4173 112.52 52.192C112.52 52.9573 112.338 53.6387 111.974 54.236C111.61 54.8333 111.124 55.3047 110.518 55.65C109.911 55.9953 109.239 56.168 108.502 56.168ZM108.502 54.488C108.912 54.488 109.272 54.39 109.58 54.194C109.897 53.998 110.144 53.7273 110.322 53.382C110.508 53.0273 110.602 52.6307 110.602 52.192C110.602 51.744 110.508 51.352 110.322 51.016C110.144 50.6707 109.897 50.4 109.58 50.204C109.272 49.9987 108.912 49.896 108.502 49.896C108.082 49.896 107.713 49.9987 107.396 50.204C107.078 50.4 106.826 50.6707 106.64 51.016C106.462 51.352 106.374 51.744 106.374 52.192C106.374 52.6307 106.462 53.0273 106.64 53.382C106.826 53.7273 107.078 53.998 107.396 54.194C107.713 54.39 108.082 54.488 108.502 54.488ZM116.627 56.168C116.039 56.168 115.525 56.0373 115.087 55.776C114.657 55.5147 114.326 55.1507 114.093 54.684C113.869 54.2173 113.757 53.6713 113.757 53.046V48.384H115.591V52.892C115.591 53.2093 115.651 53.4893 115.773 53.732C115.903 53.9653 116.085 54.152 116.319 54.292C116.561 54.4227 116.832 54.488 117.131 54.488C117.429 54.488 117.695 54.4227 117.929 54.292C118.162 54.152 118.344 53.9607 118.475 53.718C118.605 53.4753 118.671 53.186 118.671 52.85V48.384H120.505V56H118.769V54.502L118.923 54.768C118.745 55.2347 118.451 55.5847 118.041 55.818C117.639 56.0513 117.168 56.168 116.627 56.168ZM122.209 56V48.384H123.931V50.078L123.791 49.826C123.969 49.2567 124.244 48.86 124.617 48.636C125 48.412 125.457 48.3 125.989 48.3H126.437V49.924H125.779C125.257 49.924 124.837 50.0873 124.519 50.414C124.202 50.7313 124.043 51.1793 124.043 51.758V56H122.209ZM130.344 56.168C129.532 56.168 128.822 55.9767 128.216 55.594C127.618 55.202 127.208 54.6747 126.984 54.012L128.356 53.354C128.552 53.7833 128.822 54.1193 129.168 54.362C129.522 54.6047 129.914 54.726 130.344 54.726C130.68 54.726 130.946 54.6513 131.142 54.502C131.338 54.3527 131.436 54.1567 131.436 53.914C131.436 53.7647 131.394 53.6433 131.31 53.55C131.235 53.4473 131.128 53.3633 130.988 53.298C130.857 53.2233 130.712 53.1627 130.554 53.116L129.308 52.766C128.664 52.5793 128.174 52.2947 127.838 51.912C127.511 51.5293 127.348 51.0767 127.348 50.554C127.348 50.0873 127.464 49.6813 127.698 49.336C127.94 48.9813 128.272 48.706 128.692 48.51C129.121 48.314 129.611 48.216 130.162 48.216C130.88 48.216 131.515 48.3887 132.066 48.734C132.616 49.0793 133.008 49.5647 133.242 50.19L131.842 50.848C131.711 50.5027 131.492 50.2273 131.184 50.022C130.876 49.8167 130.53 49.714 130.148 49.714C129.84 49.714 129.597 49.784 129.42 49.924C129.242 50.064 129.154 50.246 129.154 50.47C129.154 50.61 129.191 50.7313 129.266 50.834C129.34 50.9367 129.443 51.0207 129.574 51.086C129.714 51.1513 129.872 51.212 130.05 51.268L131.268 51.632C131.893 51.8187 132.374 52.0987 132.71 52.472C133.055 52.8453 133.228 53.3027 133.228 53.844C133.228 54.3013 133.106 54.7073 132.864 55.062C132.621 55.4073 132.285 55.678 131.856 55.874C131.426 56.07 130.922 56.168 130.344 56.168Z" fill="#83869A"/>
<path d="M49.44 97V77.352H44.8V73.16H54.4V97H49.44ZM60.7388 102.28V99.88C61.4854 99.7093 62.0934 99.3787 62.5628 98.888C63.0534 98.4187 63.3734 97.7893 63.5228 97H61.3788V92.2H66.1788V94.984C66.1788 97.0107 65.7201 98.6427 64.8028 99.88C63.8854 101.117 62.5308 101.917 60.7388 102.28ZM81.1465 97V91.88H70.5865V87.72L80.8265 73.16H86.1065V87.72H89.7865V91.88H86.1065V97H81.1465ZM74.2025 89.512L73.2745 87.72H81.1465V77L82.3945 77.384L74.2025 89.512ZM100.19 97.384C98.9313 97.384 97.7153 97.1493 96.542 96.68C95.3687 96.1893 94.366 95.5067 93.534 94.632C92.702 93.736 92.158 92.6693 91.902 91.432L96.286 89.96C96.606 90.984 97.118 91.7307 97.822 92.2C98.526 92.6693 99.3153 92.904 100.19 92.904C100.937 92.904 101.587 92.7547 102.142 92.456C102.697 92.136 103.123 91.6987 103.422 91.144C103.742 90.568 103.902 89.9067 103.902 89.16C103.902 88.4133 103.742 87.7627 103.422 87.208C103.123 86.6533 102.697 86.2267 102.142 85.928C101.587 85.608 100.937 85.448 100.19 85.448C99.422 85.448 98.7393 85.6187 98.142 85.96C97.5447 86.28 97.1073 86.7813 96.83 87.464L92.766 86.504L94.686 73.16H107.998V77.32H96.702L98.558 75.08L97.246 85L95.902 83.816C96.4353 82.9413 97.1073 82.3013 97.918 81.896C98.75 81.4907 99.8167 81.288 101.118 81.288C102.718 81.288 104.094 81.6293 105.246 82.312C106.398 82.9733 107.283 83.8907 107.902 85.064C108.542 86.2373 108.862 87.6027 108.862 89.16C108.862 90.7173 108.478 92.1253 107.71 93.384C106.963 94.6213 105.939 95.6027 104.638 96.328C103.337 97.032 101.854 97.384 100.19 97.384ZM115.846 97V77.352H111.206V73.16H120.806V97H115.846Z" fill="#13183F"/>
</g>
<defs>
<filter id="filter0_d_2086_124" x="-30" y="0" width="263" height="208" filterUnits="userSpaceOnUse" color-interpolation-filters="sRGB">
<feFlood flood-opacity="0" result="BackgroundImageFix"/>
<feColorMatrix in="SourceAlpha" type="matrix" values="0 0 0 0 0 0 0 0 0 0 0 0 0 0 0 0 0 0 127 0" result="hardAlpha"/>
<feOffset dy="34"/>
<feGaussianBlur stdDeviation="27"/>
<feColorMatrix type="matrix" values="0 0 0 0 0.0241629 0 0 0 0 0.0843621 0 0 0 0 0.553916 0 0 0 0.158854 0"/>
<feBlend mode="normal" in2="BackgroundImageFix" result="effect1_dropShadow_2086_124"/>
<feBlend mode="normal" in="SourceGraphic" in2="effect1_dropShadow_2086_124" result="shape"/>
</filter>
<clipPath id="clip0_2086_124">
<rect width="90" height="68" fill="white" transform="translate(44 36)"/>
</clipPath>
</defs>
</svg>
