<svg width="263" height="208" viewBox="0 0 263 208" fill="none" xmlns="http://www.w3.org/2000/svg">
<g filter="url(#filter0_d_2086_168)">
<rect x="54" y="20" width="155" height="100" rx="10" fill="#FCFCFF"/>
</g>
<g clip-path="url(#clip0_2086_168)">
<path d="M79.908 56.168C79.1613 56.168 78.4707 56.0327 77.836 55.762C77.2107 55.4913 76.66 55.1133 76.184 54.628C75.7173 54.1427 75.3533 53.5733 75.092 52.92C74.8307 52.2667 74.7 51.5527 74.7 50.778C74.7 50.0033 74.826 49.2893 75.078 48.636C75.3393 47.9733 75.7033 47.404 76.17 46.928C76.646 46.4427 77.2013 46.0693 77.836 45.808C78.4707 45.5373 79.1613 45.402 79.908 45.402C80.6547 45.402 81.322 45.528 81.91 45.78C82.5073 46.032 83.0113 46.368 83.422 46.788C83.8327 47.1987 84.1267 47.6513 84.304 48.146L82.596 48.944C82.4 48.4213 82.0687 47.992 81.602 47.656C81.1353 47.3107 80.5707 47.138 79.908 47.138C79.2547 47.138 78.676 47.292 78.172 47.6C77.6773 47.908 77.29 48.3327 77.01 48.874C76.7393 49.4153 76.604 50.05 76.604 50.778C76.604 51.506 76.7393 52.1453 77.01 52.696C77.29 53.2373 77.6773 53.662 78.172 53.97C78.676 54.278 79.2547 54.432 79.908 54.432C80.5707 54.432 81.1353 54.264 81.602 53.928C82.0687 53.5827 82.4 53.1487 82.596 52.626L84.304 53.424C84.1267 53.9187 83.8327 54.376 83.422 54.796C83.0113 55.2067 82.5073 55.538 81.91 55.79C81.322 56.042 80.6547 56.168 79.908 56.168ZM89.2831 56.168C88.5364 56.168 87.8551 55.9953 87.2391 55.65C86.6324 55.3047 86.1471 54.8333 85.7831 54.236C85.4284 53.6387 85.2511 52.9573 85.2511 52.192C85.2511 51.4267 85.4284 50.7453 85.7831 50.148C86.1471 49.5507 86.6324 49.0793 87.2391 48.734C87.8457 48.3887 88.5271 48.216 89.2831 48.216C90.0297 48.216 90.7064 48.3887 91.3131 48.734C91.9197 49.0793 92.4004 49.5507 92.7551 50.148C93.1191 50.736 93.3011 51.4173 93.3011 52.192C93.3011 52.9573 93.1191 53.6387 92.7551 54.236C92.3911 54.8333 91.9057 55.3047 91.2991 55.65C90.6924 55.9953 90.0204 56.168 89.2831 56.168ZM89.2831 54.488C89.6937 54.488 90.0531 54.39 90.3611 54.194C90.6784 53.998 90.9257 53.7273 91.1031 53.382C91.2897 53.0273 91.3831 52.6307 91.3831 52.192C91.3831 51.744 91.2897 51.352 91.1031 51.016C90.9257 50.6707 90.6784 50.4 90.3611 50.204C90.0531 49.9987 89.6937 49.896 89.2831 49.896C88.8631 49.896 88.4944 49.9987 88.1771 50.204C87.8597 50.4 87.6077 50.6707 87.4211 51.016C87.2437 51.352 87.1551 51.744 87.1551 52.192C87.1551 52.6307 87.2437 53.0273 87.4211 53.382C87.6077 53.7273 87.8597 53.998 88.1771 54.194C88.4944 54.39 88.8631 54.488 89.2831 54.488ZM97.4079 56.168C96.8199 56.168 96.3066 56.0373 95.8679 55.776C95.4386 55.5147 95.1072 55.1507 94.8739 54.684C94.6499 54.2173 94.5379 53.6713 94.5379 53.046V48.384H96.3719V52.892C96.3719 53.2093 96.4326 53.4893 96.5539 53.732C96.6846 53.9653 96.8666 54.152 97.0999 54.292C97.3426 54.4227 97.6132 54.488 97.9119 54.488C98.2106 54.488 98.4766 54.4227 98.7099 54.292C98.9432 54.152 99.1252 53.9607 99.2559 53.718C99.3866 53.4753 99.4519 53.186 99.4519 52.85V48.384H101.286V56H99.5499V54.502L99.7039 54.768C99.5266 55.2347 99.2326 55.5847 98.8219 55.818C98.4206 56.0513 97.9492 56.168 97.4079 56.168ZM102.991 56V48.384H104.713V50.078L104.573 49.826C104.75 49.2567 105.025 48.86 105.399 48.636C105.781 48.412 106.239 48.3 106.771 48.3H107.219V49.924H106.561C106.038 49.924 105.618 50.0873 105.301 50.414C104.983 50.7313 104.825 51.1793 104.825 51.758V56H102.991ZM111.125 56.168C110.313 56.168 109.604 55.9767 108.997 55.594C108.4 55.202 107.989 54.6747 107.765 54.012L109.137 53.354C109.333 53.7833 109.604 54.1193 109.949 54.362C110.304 54.6047 110.696 54.726 111.125 54.726C111.461 54.726 111.727 54.6513 111.923 54.502C112.119 54.3527 112.217 54.1567 112.217 53.914C112.217 53.7647 112.175 53.6433 112.091 53.55C112.016 53.4473 111.909 53.3633 111.769 53.298C111.638 53.2233 111.494 53.1627 111.335 53.116L110.089 52.766C109.445 52.5793 108.955 52.2947 108.619 51.912C108.292 51.5293 108.129 51.0767 108.129 50.554C108.129 50.0873 108.246 49.6813 108.479 49.336C108.722 48.9813 109.053 48.706 109.473 48.51C109.902 48.314 110.392 48.216 110.943 48.216C111.662 48.216 112.296 48.3887 112.847 48.734C113.398 49.0793 113.79 49.5647 114.023 50.19L112.623 50.848C112.492 50.5027 112.273 50.2273 111.965 50.022C111.657 49.8167 111.312 49.714 110.929 49.714C110.621 49.714 110.378 49.784 110.201 49.924C110.024 50.064 109.935 50.246 109.935 50.47C109.935 50.61 109.972 50.7313 110.047 50.834C110.122 50.9367 110.224 51.0207 110.355 51.086C110.495 51.1513 110.654 51.212 110.831 51.268L112.049 51.632C112.674 51.8187 113.155 52.0987 113.491 52.472C113.836 52.8453 114.009 53.3027 114.009 53.844C114.009 54.3013 113.888 54.7073 113.645 55.062C113.402 55.4073 113.066 55.678 112.637 55.874C112.208 56.07 111.704 56.168 111.125 56.168ZM119.03 56.168C118.246 56.168 117.56 55.9907 116.972 55.636C116.384 55.2813 115.927 54.8007 115.6 54.194C115.274 53.5873 115.11 52.9153 115.11 52.178C115.11 51.4127 115.274 50.736 115.6 50.148C115.936 49.5507 116.389 49.0793 116.958 48.734C117.537 48.3887 118.181 48.216 118.89 48.216C119.488 48.216 120.01 48.314 120.458 48.51C120.916 48.706 121.303 48.9767 121.62 49.322C121.938 49.6673 122.18 50.064 122.348 50.512C122.516 50.9507 122.6 51.4267 122.6 51.94C122.6 52.0707 122.591 52.206 122.572 52.346C122.563 52.486 122.54 52.6073 122.502 52.71H116.622V51.31H121.466L120.598 51.968C120.682 51.5387 120.659 51.156 120.528 50.82C120.407 50.484 120.202 50.218 119.912 50.022C119.632 49.826 119.292 49.728 118.89 49.728C118.508 49.728 118.167 49.826 117.868 50.022C117.57 50.2087 117.341 50.4887 117.182 50.862C117.033 51.226 116.977 51.6693 117.014 52.192C116.977 52.6587 117.038 53.074 117.196 53.438C117.364 53.7927 117.607 54.068 117.924 54.264C118.251 54.46 118.624 54.558 119.044 54.558C119.464 54.558 119.819 54.4693 120.108 54.292C120.407 54.1147 120.64 53.8767 120.808 53.578L122.292 54.306C122.143 54.67 121.91 54.992 121.592 55.272C121.275 55.552 120.897 55.7713 120.458 55.93C120.029 56.0887 119.553 56.168 119.03 56.168ZM126.479 56V45.402H128.313V49.882L128.061 49.616C128.238 49.1587 128.528 48.8133 128.929 48.58C129.34 48.3373 129.816 48.216 130.357 48.216C130.917 48.216 131.412 48.3373 131.841 48.58C132.28 48.8227 132.62 49.1633 132.863 49.602C133.106 50.0313 133.227 50.5307 133.227 51.1V56H131.393V51.534C131.393 51.198 131.328 50.9087 131.197 50.666C131.066 50.4233 130.884 50.2367 130.651 50.106C130.427 49.966 130.161 49.896 129.853 49.896C129.554 49.896 129.288 49.966 129.055 50.106C128.822 50.2367 128.64 50.4233 128.509 50.666C128.378 50.9087 128.313 51.198 128.313 51.534V56H126.479ZM138.502 56.168C137.755 56.168 137.074 55.9953 136.458 55.65C135.851 55.3047 135.366 54.8333 135.002 54.236C134.647 53.6387 134.47 52.9573 134.47 52.192C134.47 51.4267 134.647 50.7453 135.002 50.148C135.366 49.5507 135.851 49.0793 136.458 48.734C137.064 48.3887 137.746 48.216 138.502 48.216C139.248 48.216 139.925 48.3887 140.532 48.734C141.138 49.0793 141.619 49.5507 141.974 50.148C142.338 50.736 142.52 51.4173 142.52 52.192C142.52 52.9573 142.338 53.6387 141.974 54.236C141.61 54.8333 141.124 55.3047 140.518 55.65C139.911 55.9953 139.239 56.168 138.502 56.168ZM138.502 54.488C138.912 54.488 139.272 54.39 139.58 54.194C139.897 53.998 140.144 53.7273 140.322 53.382C140.508 53.0273 140.602 52.6307 140.602 52.192C140.602 51.744 140.508 51.352 140.322 51.016C140.144 50.6707 139.897 50.4 139.58 50.204C139.272 49.9987 138.912 49.896 138.502 49.896C138.082 49.896 137.713 49.9987 137.396 50.204C137.078 50.4 136.826 50.6707 136.64 51.016C136.462 51.352 136.374 51.744 136.374 52.192C136.374 52.6307 136.462 53.0273 136.64 53.382C136.826 53.7273 137.078 53.998 137.396 54.194C137.713 54.39 138.082 54.488 138.502 54.488ZM146.627 56.168C146.039 56.168 145.525 56.0373 145.087 55.776C144.657 55.5147 144.326 55.1507 144.093 54.684C143.869 54.2173 143.757 53.6713 143.757 53.046V48.384H145.591V52.892C145.591 53.2093 145.651 53.4893 145.773 53.732C145.903 53.9653 146.085 54.152 146.319 54.292C146.561 54.4227 146.832 54.488 147.131 54.488C147.429 54.488 147.695 54.4227 147.929 54.292C148.162 54.152 148.344 53.9607 148.475 53.718C148.605 53.4753 148.671 53.186 148.671 52.85V48.384H150.505V56H148.769V54.502L148.923 54.768C148.745 55.2347 148.451 55.5847 148.041 55.818C147.639 56.0513 147.168 56.168 146.627 56.168ZM152.209 56V48.384H153.931V50.078L153.791 49.826C153.969 49.2567 154.244 48.86 154.617 48.636C155 48.412 155.457 48.3 155.989 48.3H156.437V49.924H155.779C155.257 49.924 154.837 50.0873 154.519 50.414C154.202 50.7313 154.043 51.1793 154.043 51.758V56H152.209ZM160.344 56.168C159.532 56.168 158.822 55.9767 158.216 55.594C157.618 55.202 157.208 54.6747 156.984 54.012L158.356 53.354C158.552 53.7833 158.822 54.1193 159.168 54.362C159.522 54.6047 159.914 54.726 160.344 54.726C160.68 54.726 160.946 54.6513 161.142 54.502C161.338 54.3527 161.436 54.1567 161.436 53.914C161.436 53.7647 161.394 53.6433 161.31 53.55C161.235 53.4473 161.128 53.3633 160.988 53.298C160.857 53.2233 160.712 53.1627 160.554 53.116L159.308 52.766C158.664 52.5793 158.174 52.2947 157.838 51.912C157.511 51.5293 157.348 51.0767 157.348 50.554C157.348 50.0873 157.464 49.6813 157.698 49.336C157.94 48.9813 158.272 48.706 158.692 48.51C159.121 48.314 159.611 48.216 160.162 48.216C160.88 48.216 161.515 48.3887 162.066 48.734C162.616 49.0793 163.008 49.5647 163.242 50.19L161.842 50.848C161.711 50.5027 161.492 50.2273 161.184 50.022C160.876 49.8167 160.53 49.714 160.148 49.714C159.84 49.714 159.597 49.784 159.42 49.924C159.242 50.064 159.154 50.246 159.154 50.47C159.154 50.61 159.191 50.7313 159.266 50.834C159.34 50.9367 159.443 51.0207 159.574 51.086C159.714 51.1513 159.872 51.212 160.05 51.268L161.268 51.632C161.893 51.8187 162.374 52.0987 162.71 52.472C163.055 52.8453 163.228 53.3027 163.228 53.844C163.228 54.3013 163.106 54.7073 162.864 55.062C162.621 55.4073 162.285 55.678 161.856 55.874C161.426 56.07 160.922 56.168 160.344 56.168Z" fill="#83869A"/>
<path d="M79.44 97H84.4V73.16H74.8V77.352H79.44V97ZM90.7388 102.28C94.3654 101.533 96.1788 99.1013 96.1788 94.984V92.2H91.3788V97H93.5228C93.3734 97.7893 93.0534 98.4187 92.5628 98.888C92.0934 99.3787 91.4854 99.7093 90.7388 99.88V102.28ZM111.147 97H116.107V91.88H119.787V87.72H116.107V73.16H110.827L100.587 87.72V91.88H111.147V97ZM111.147 87.72H105.419L111.147 79.24V87.72ZM130.19 97.384C131.854 97.384 133.337 97.032 134.638 96.328C135.939 95.6027 136.963 94.6213 137.71 93.384C138.478 92.1253 138.862 90.7173 138.862 89.16C138.862 87.6027 138.542 86.2373 137.902 85.064C137.283 83.8907 136.398 82.9733 135.246 82.312C134.094 81.6293 132.718 81.288 131.118 81.288C129.667 81.288 128.505 81.544 127.63 82.056L128.27 77.32H137.998V73.16H124.686L122.766 86.504L126.83 87.464C127.107 86.7813 127.545 86.28 128.142 85.96C128.739 85.6187 129.422 85.448 130.19 85.448C131.299 85.448 132.195 85.7893 132.878 86.472C133.561 87.1547 133.902 88.0507 133.902 89.16C133.902 90.2693 133.561 91.176 132.878 91.88C132.195 92.5627 131.299 92.904 130.19 92.904C129.315 92.904 128.526 92.6693 127.822 92.2C127.118 91.7307 126.606 90.984 126.286 89.96L121.902 91.432C122.158 92.6693 122.702 93.736 123.534 94.632C124.366 95.5067 125.369 96.1893 126.542 96.68C127.715 97.1493 128.931 97.384 130.19 97.384ZM145.846 97H150.806V73.16H141.206V77.352H145.846V97Z" fill="#13183F"/>
</g>
<defs>
<filter id="filter0_d_2086_168" x="0" y="0" width="263" height="208" filterUnits="userSpaceOnUse" color-interpolation-filters="sRGB">
<feFlood flood-opacity="0" result="BackgroundImageFix"/>
<feColorMatrix in="SourceAlpha" type="matrix" values="0 0 0 0 0 0 0 0 0 0 0 0 0 0 0 0 0 0 127 0" result="hardAlpha"/>
<feOffset dy="34"/>
<feGaussianBlur stdDeviation="27"/>
<feColorMatrix type="matrix" values="0 0 0 0 0.0241629 0 0 0 0 0.0843621 0 0 0 0 0.553916 0 0 0 0.158854 0"/>
<feBlend mode="normal" in2="BackgroundImageFix" result="effect1_dropShadow_2086_168"/>
<feBlend mode="normal" in="SourceGraphic" in2="effect1_dropShadow_2086_168" result="shape"/>
</filter>
<clipPath id="clip0_2086_168">
<rect width="90" height="68" fill="white" transform="translate(74 36)"/>
</clipPath>
</defs>
</svg>
