<svg width="189" height="208" viewBox="0 0 189 208" fill="none" xmlns="http://www.w3.org/2000/svg">
<g filter="url(#filter0_d_2086_175)">
<rect x="54" y="20" width="105" height="100" rx="10" fill="#FCFCFF"/>
</g>
<g clip-path="url(#clip0_2086_175)">
<path d="M75.008 56V45.57H76.828L80.734 50.876H79.866L83.688 45.57H85.508V56H83.59V47.74L84.332 47.922L80.37 53.2H80.146L76.282 47.922L76.912 47.74V56H75.008ZM90.9621 56.168C90.1781 56.168 89.4921 55.9907 88.9041 55.636C88.3161 55.2813 87.8588 54.8007 87.5321 54.194C87.2054 53.5873 87.0421 52.9153 87.0421 52.178C87.0421 51.4127 87.2054 50.736 87.5321 50.148C87.8681 49.5507 88.3208 49.0793 88.8901 48.734C89.4688 48.3887 90.1128 48.216 90.8221 48.216C91.4194 48.216 91.9421 48.314 92.3901 48.51C92.8474 48.706 93.2348 48.9767 93.5521 49.322C93.8694 49.6673 94.1121 50.064 94.2801 50.512C94.4481 50.9507 94.5321 51.4267 94.5321 51.94C94.5321 52.0707 94.5228 52.206 94.5041 52.346C94.4948 52.486 94.4714 52.6073 94.4341 52.71H88.5541V51.31H93.3981L92.5301 51.968C92.6141 51.5387 92.5908 51.156 92.4601 50.82C92.3388 50.484 92.1334 50.218 91.8441 50.022C91.5641 49.826 91.2234 49.728 90.8221 49.728C90.4394 49.728 90.0988 49.826 89.8001 50.022C89.5014 50.2087 89.2728 50.4887 89.1141 50.862C88.9648 51.226 88.9088 51.6693 88.9461 52.192C88.9088 52.6587 88.9694 53.074 89.1281 53.438C89.2961 53.7927 89.5388 54.068 89.8561 54.264C90.1828 54.46 90.5561 54.558 90.9761 54.558C91.3961 54.558 91.7508 54.4693 92.0401 54.292C92.3388 54.1147 92.5721 53.8767 92.7401 53.578L94.2241 54.306C94.0748 54.67 93.8414 54.992 93.5241 55.272C93.2068 55.552 92.8288 55.7713 92.3901 55.93C91.9608 56.0887 91.4848 56.168 90.9621 56.168ZM95.9224 56V48.384H97.6444V50.148L97.4484 49.854C97.5884 49.3033 97.8684 48.8927 98.2884 48.622C98.7084 48.3513 99.203 48.216 99.7724 48.216C100.398 48.216 100.948 48.3793 101.424 48.706C101.9 49.0327 102.208 49.462 102.348 49.994L101.83 50.036C102.064 49.4293 102.414 48.9767 102.88 48.678C103.347 48.37 103.884 48.216 104.49 48.216C105.032 48.216 105.512 48.3373 105.932 48.58C106.362 48.8227 106.698 49.1633 106.94 49.602C107.183 50.0313 107.304 50.5307 107.304 51.1V56H105.47V51.534C105.47 51.198 105.41 50.9087 105.288 50.666C105.167 50.4233 104.999 50.2367 104.784 50.106C104.57 49.966 104.308 49.896 104 49.896C103.711 49.896 103.454 49.966 103.23 50.106C103.006 50.2367 102.834 50.4233 102.712 50.666C102.591 50.9087 102.53 51.198 102.53 51.534V56H100.696V51.534C100.696 51.198 100.636 50.9087 100.514 50.666C100.393 50.4233 100.22 50.2367 99.9964 50.106C99.7817 49.966 99.525 49.896 99.2264 49.896C98.937 49.896 98.6804 49.966 98.4564 50.106C98.2324 50.2367 98.0597 50.4233 97.9384 50.666C97.817 50.9087 97.7564 51.198 97.7564 51.534V56H95.9224ZM113.014 56.168C112.463 56.168 111.955 56.0607 111.488 55.846C111.031 55.622 110.667 55.3047 110.396 54.894L110.578 54.53V56H108.856V45.402H110.69V49.896L110.41 49.518C110.671 49.1073 111.026 48.79 111.474 48.566C111.922 48.3327 112.44 48.216 113.028 48.216C113.747 48.216 114.395 48.3933 114.974 48.748C115.553 49.1027 116.01 49.5787 116.346 50.176C116.691 50.7733 116.864 51.4453 116.864 52.192C116.864 52.9293 116.696 53.6013 116.36 54.208C116.024 54.8147 115.567 55.2953 114.988 55.65C114.409 55.9953 113.751 56.168 113.014 56.168ZM112.804 54.488C113.224 54.488 113.597 54.39 113.924 54.194C114.251 53.998 114.503 53.7273 114.68 53.382C114.867 53.0367 114.96 52.64 114.96 52.192C114.96 51.744 114.867 51.352 114.68 51.016C114.503 50.6707 114.251 50.4 113.924 50.204C113.597 49.9987 113.224 49.896 112.804 49.896C112.403 49.896 112.039 49.994 111.712 50.19C111.395 50.386 111.143 50.6613 110.956 51.016C110.779 51.3613 110.69 51.7533 110.69 52.192C110.69 52.64 110.779 53.0367 110.956 53.382C111.143 53.7273 111.395 53.998 111.712 54.194C112.039 54.39 112.403 54.488 112.804 54.488ZM121.874 56.168C121.09 56.168 120.404 55.9907 119.816 55.636C119.228 55.2813 118.771 54.8007 118.444 54.194C118.118 53.5873 117.954 52.9153 117.954 52.178C117.954 51.4127 118.118 50.736 118.444 50.148C118.78 49.5507 119.233 49.0793 119.802 48.734C120.381 48.3887 121.025 48.216 121.734 48.216C122.332 48.216 122.854 48.314 123.302 48.51C123.76 48.706 124.147 48.9767 124.464 49.322C124.782 49.6673 125.024 50.064 125.192 50.512C125.36 50.9507 125.444 51.4267 125.444 51.94C125.444 52.0707 125.435 52.206 125.416 52.346C125.407 52.486 125.384 52.6073 125.346 52.71H119.466V51.31H124.31L123.442 51.968C123.526 51.5387 123.503 51.156 123.372 50.82C123.251 50.484 123.046 50.218 122.756 50.022C122.476 49.826 122.136 49.728 121.734 49.728C121.352 49.728 121.011 49.826 120.712 50.022C120.414 50.2087 120.185 50.4887 120.026 50.862C119.877 51.226 119.821 51.6693 119.858 52.192C119.821 52.6587 119.882 53.074 120.04 53.438C120.208 53.7927 120.451 54.068 120.768 54.264C121.095 54.46 121.468 54.558 121.888 54.558C122.308 54.558 122.663 54.4693 122.952 54.292C123.251 54.1147 123.484 53.8767 123.652 53.578L125.136 54.306C124.987 54.67 124.754 54.992 124.436 55.272C124.119 55.552 123.741 55.7713 123.302 55.93C122.873 56.0887 122.397 56.168 121.874 56.168ZM126.834 56V48.384H128.556V50.078L128.416 49.826C128.594 49.2567 128.869 48.86 129.242 48.636C129.625 48.412 130.082 48.3 130.614 48.3H131.062V49.924H130.404C129.882 49.924 129.462 50.0873 129.144 50.414C128.827 50.7313 128.668 51.1793 128.668 51.758V56H126.834ZM134.969 56.168C134.157 56.168 133.447 55.9767 132.841 55.594C132.243 55.202 131.833 54.6747 131.609 54.012L132.981 53.354C133.177 53.7833 133.447 54.1193 133.793 54.362C134.147 54.6047 134.539 54.726 134.969 54.726C135.305 54.726 135.571 54.6513 135.767 54.502C135.963 54.3527 136.061 54.1567 136.061 53.914C136.061 53.7647 136.019 53.6433 135.935 53.55C135.86 53.4473 135.753 53.3633 135.613 53.298C135.482 53.2233 135.337 53.1627 135.179 53.116L133.933 52.766C133.289 52.5793 132.799 52.2947 132.463 51.912C132.136 51.5293 131.973 51.0767 131.973 50.554C131.973 50.0873 132.089 49.6813 132.323 49.336C132.565 48.9813 132.897 48.706 133.317 48.51C133.746 48.314 134.236 48.216 134.787 48.216C135.505 48.216 136.14 48.3887 136.691 48.734C137.241 49.0793 137.633 49.5647 137.867 50.19L136.467 50.848C136.336 50.5027 136.117 50.2273 135.809 50.022C135.501 49.8167 135.155 49.714 134.773 49.714C134.465 49.714 134.222 49.784 134.045 49.924C133.867 50.064 133.779 50.246 133.779 50.47C133.779 50.61 133.816 50.7313 133.891 50.834C133.965 50.9367 134.068 51.0207 134.199 51.086C134.339 51.1513 134.497 51.212 134.675 51.268L135.893 51.632C136.518 51.8187 136.999 52.0987 137.335 52.472C137.68 52.8453 137.853 53.3027 137.853 53.844C137.853 54.3013 137.731 54.7073 137.489 55.062C137.246 55.4073 136.91 55.678 136.481 55.874C136.051 56.07 135.547 56.168 134.969 56.168Z" fill="#83869A"/>
<path d="M75.344 97V93.16L81.744 86.568C83.0027 85.2667 83.952 84.2427 84.592 83.496C85.2533 82.728 85.7013 82.088 85.936 81.576C86.192 81.064 86.32 80.5627 86.32 80.072C86.32 79.1973 86.032 78.5147 85.456 78.024C84.9013 77.512 84.1973 77.256 83.344 77.256C82.4693 77.256 81.6907 77.512 81.008 78.024C80.3253 78.5147 79.824 79.272 79.504 80.296L75.184 78.888C75.44 77.6507 75.9733 76.5733 76.784 75.656C77.5947 74.7387 78.576 74.0347 79.728 73.544C80.88 73.032 82.0853 72.776 83.344 72.776C84.9227 72.776 86.3093 73.0533 87.504 73.608C88.6987 74.1627 89.6267 74.9413 90.288 75.944C90.9493 76.9467 91.28 78.12 91.28 79.464C91.28 80.3173 91.1307 81.16 90.832 81.992C90.5333 82.8027 90.0747 83.6347 89.456 84.488C88.8587 85.32 88.08 86.2267 87.12 87.208L81.648 92.84H91.504V97H75.344ZM95.5265 97L103.559 86.728L104.359 87.848C104.06 87.976 103.772 88.0933 103.495 88.2C103.239 88.2853 102.972 88.3493 102.695 88.392C102.417 88.4347 102.129 88.456 101.831 88.456C100.359 88.456 99.0465 88.1253 97.8945 87.464C96.7638 86.8027 95.8678 85.9067 95.2065 84.776C94.5665 83.624 94.2465 82.3333 94.2465 80.904C94.2465 79.3253 94.6092 77.928 95.3345 76.712C96.0598 75.496 97.0625 74.536 98.3425 73.832C99.6225 73.128 101.084 72.776 102.727 72.776C104.391 72.776 105.852 73.128 107.111 73.832C108.391 74.5147 109.393 75.4533 110.119 76.648C110.844 77.8213 111.207 79.1653 111.207 80.68C111.207 81.4267 111.132 82.1733 110.983 82.92C110.833 83.6667 110.535 84.488 110.087 85.384C109.639 86.2587 108.967 87.2827 108.071 88.456L101.447 97H95.5265ZM102.727 84.392C103.388 84.392 103.975 84.2427 104.487 83.944C105.02 83.6453 105.447 83.2293 105.767 82.696C106.087 82.1627 106.247 81.544 106.247 80.84C106.247 80.1147 106.087 79.4853 105.767 78.952C105.447 78.4187 105.02 78.0027 104.487 77.704C103.975 77.4053 103.388 77.256 102.727 77.256C102.087 77.256 101.5 77.4053 100.967 77.704C100.433 78.0027 100.007 78.4187 99.6865 78.952C99.3665 79.4853 99.2065 80.1147 99.2065 80.84C99.2065 81.544 99.3665 82.1627 99.6865 82.696C100.007 83.2293 100.433 83.6453 100.967 83.944C101.5 84.2427 102.087 84.392 102.727 84.392ZM114.135 97V72.776H118.935V88.296L117.143 87.72L124.855 79.528H130.775L124.439 86.568L130.743 97H125.303L120.023 88.136L122.807 87.432L117.463 93.256L118.935 90.472V97H114.135Z" fill="#13183F"/>
</g>
<defs>
<filter id="filter0_d_2086_175" x="0" y="0" width="213" height="208" filterUnits="userSpaceOnUse" color-interpolation-filters="sRGB">
<feFlood flood-opacity="0" result="BackgroundImageFix"/>
<feColorMatrix in="SourceAlpha" type="matrix" values="0 0 0 0 0 0 0 0 0 0 0 0 0 0 0 0 0 0 127 0" result="hardAlpha"/>
<feOffset dy="34"/>
<feGaussianBlur stdDeviation="27"/>
<feColorMatrix type="matrix" values="0 0 0 0 0.0241629 0 0 0 0 0.0843621 0 0 0 0 0.553916 0 0 0 0.158854 0"/>
<feBlend mode="normal" in2="BackgroundImageFix" result="effect1_dropShadow_2086_175"/>
<feBlend mode="normal" in="SourceGraphic" in2="effect1_dropShadow_2086_175" result="shape"/>
</filter>
<clipPath id="clip0_2086_175">
<rect width="65" height="68" fill="white" transform="translate(74 36)"/>
</clipPath>
</defs>
</svg>
